<mxfile host="app.diagrams.net" agent="Mozilla/5.0 (Windows NT 10.0; Win64; x64) AppleWebKit/537.36 (KHTML, like Gecko) Chrome/130.0.0.0 Safari/537.36" version="24.8.4">
  <diagram name="Page-1" id="1sQD76YVOnzZP8XWo56J">
    <mxGraphModel dx="792" dy="737" grid="1" gridSize="10" guides="1" tooltips="1" connect="1" arrows="1" fold="1" page="1" pageScale="1" pageWidth="850" pageHeight="1100" math="0" shadow="0">
      <root>
        <mxCell id="0" />
        <mxCell id="1" parent="0" />
        <mxCell id="YmTk-5XPmhIBzpGIvkfI-9" value="" style="rounded=1;whiteSpace=wrap;html=1;" vertex="1" parent="1">
          <mxGeometry x="160" y="110" width="190" height="470" as="geometry" />
        </mxCell>
        <mxCell id="YmTk-5XPmhIBzpGIvkfI-1" value="Client" style="shape=umlActor;verticalLabelPosition=bottom;verticalAlign=top;html=1;outlineConnect=0;" vertex="1" parent="1">
          <mxGeometry x="30" y="290" width="60" height="120" as="geometry" />
        </mxCell>
        <mxCell id="YmTk-5XPmhIBzpGIvkfI-4" value="authenticator" style="shape=umlActor;verticalLabelPosition=bottom;verticalAlign=top;html=1;outlineConnect=0;" vertex="1" parent="1">
          <mxGeometry x="439" y="120" width="30" height="60" as="geometry" />
        </mxCell>
        <mxCell id="YmTk-5XPmhIBzpGIvkfI-10" value="log in&lt;div&gt;(personal details)&lt;/div&gt;" style="ellipse;whiteSpace=wrap;html=1;" vertex="1" parent="1">
          <mxGeometry x="197.5" y="160" width="115" height="70" as="geometry" />
        </mxCell>
        <mxCell id="YmTk-5XPmhIBzpGIvkfI-11" value="enter required data" style="ellipse;whiteSpace=wrap;html=1;" vertex="1" parent="1">
          <mxGeometry x="197.5" y="260" width="115" height="70" as="geometry" />
        </mxCell>
        <mxCell id="YmTk-5XPmhIBzpGIvkfI-35" value="" style="edgeStyle=orthogonalEdgeStyle;rounded=0;orthogonalLoop=1;jettySize=auto;html=1;" edge="1" parent="1" source="YmTk-5XPmhIBzpGIvkfI-12" target="YmTk-5XPmhIBzpGIvkfI-11">
          <mxGeometry relative="1" as="geometry" />
        </mxCell>
        <mxCell id="YmTk-5XPmhIBzpGIvkfI-12" value="&amp;nbsp;recommendation (paid)" style="ellipse;whiteSpace=wrap;html=1;" vertex="1" parent="1">
          <mxGeometry x="197.5" y="370" width="115" height="70" as="geometry" />
        </mxCell>
        <mxCell id="YmTk-5XPmhIBzpGIvkfI-13" value="Analysis&amp;nbsp;&lt;div&gt;(free&lt;span style=&quot;background-color: initial;&quot;&gt;)&lt;/span&gt;&lt;/div&gt;" style="ellipse;whiteSpace=wrap;html=1;" vertex="1" parent="1">
          <mxGeometry x="197.5" y="480" width="115" height="70" as="geometry" />
        </mxCell>
        <mxCell id="YmTk-5XPmhIBzpGIvkfI-14" value="ai analysis" style="shape=umlActor;verticalLabelPosition=bottom;verticalAlign=top;html=1;outlineConnect=0;" vertex="1" parent="1">
          <mxGeometry x="435" y="240" width="30" height="60" as="geometry" />
        </mxCell>
        <mxCell id="YmTk-5XPmhIBzpGIvkfI-15" value="recommendations" style="shape=umlActor;verticalLabelPosition=bottom;verticalAlign=top;html=1;outlineConnect=0;" vertex="1" parent="1">
          <mxGeometry x="435" y="360" width="30" height="60" as="geometry" />
        </mxCell>
        <mxCell id="YmTk-5XPmhIBzpGIvkfI-16" value="payment partner" style="shape=umlActor;verticalLabelPosition=bottom;verticalAlign=top;html=1;outlineConnect=0;" vertex="1" parent="1">
          <mxGeometry x="435" y="480" width="30" height="60" as="geometry" />
        </mxCell>
        <mxCell id="YmTk-5XPmhIBzpGIvkfI-24" value="" style="endArrow=none;html=1;rounded=0;exitX=0.93;exitY=0.721;exitDx=0;exitDy=0;exitPerimeter=0;" edge="1" parent="1" source="YmTk-5XPmhIBzpGIvkfI-12">
          <mxGeometry width="50" height="50" relative="1" as="geometry">
            <mxPoint x="360" y="310" as="sourcePoint" />
            <mxPoint x="420" y="500" as="targetPoint" />
          </mxGeometry>
        </mxCell>
        <mxCell id="YmTk-5XPmhIBzpGIvkfI-25" value="" style="endArrow=none;html=1;rounded=0;exitX=1;exitY=0.5;exitDx=0;exitDy=0;" edge="1" parent="1" source="YmTk-5XPmhIBzpGIvkfI-12">
          <mxGeometry width="50" height="50" relative="1" as="geometry">
            <mxPoint x="330" y="200" as="sourcePoint" />
            <mxPoint x="420" y="400" as="targetPoint" />
          </mxGeometry>
        </mxCell>
        <mxCell id="YmTk-5XPmhIBzpGIvkfI-26" value="" style="endArrow=none;html=1;rounded=0;exitX=1;exitY=0.5;exitDx=0;exitDy=0;" edge="1" parent="1" source="YmTk-5XPmhIBzpGIvkfI-11">
          <mxGeometry width="50" height="50" relative="1" as="geometry">
            <mxPoint x="340" y="210" as="sourcePoint" />
            <mxPoint x="430" y="270" as="targetPoint" />
          </mxGeometry>
        </mxCell>
        <mxCell id="YmTk-5XPmhIBzpGIvkfI-27" value="" style="endArrow=none;html=1;rounded=0;exitX=0.948;exitY=0.35;exitDx=0;exitDy=0;exitPerimeter=0;" edge="1" parent="1" source="YmTk-5XPmhIBzpGIvkfI-13">
          <mxGeometry width="50" height="50" relative="1" as="geometry">
            <mxPoint x="323" y="305" as="sourcePoint" />
            <mxPoint x="430" y="270" as="targetPoint" />
          </mxGeometry>
        </mxCell>
        <mxCell id="YmTk-5XPmhIBzpGIvkfI-28" value="" style="endArrow=none;html=1;rounded=0;exitX=1;exitY=0.5;exitDx=0;exitDy=0;" edge="1" parent="1" source="YmTk-5XPmhIBzpGIvkfI-10">
          <mxGeometry width="50" height="50" relative="1" as="geometry">
            <mxPoint x="323" y="305" as="sourcePoint" />
            <mxPoint x="430" y="150" as="targetPoint" />
          </mxGeometry>
        </mxCell>
        <mxCell id="YmTk-5XPmhIBzpGIvkfI-29" value="" style="endArrow=none;html=1;rounded=0;entryX=0;entryY=0.5;entryDx=0;entryDy=0;" edge="1" parent="1" source="YmTk-5XPmhIBzpGIvkfI-1" target="YmTk-5XPmhIBzpGIvkfI-11">
          <mxGeometry width="50" height="50" relative="1" as="geometry">
            <mxPoint x="180" y="360" as="sourcePoint" />
            <mxPoint x="230" y="310" as="targetPoint" />
          </mxGeometry>
        </mxCell>
        <mxCell id="YmTk-5XPmhIBzpGIvkfI-30" value="" style="endArrow=none;html=1;rounded=0;" edge="1" parent="1" source="YmTk-5XPmhIBzpGIvkfI-1" target="YmTk-5XPmhIBzpGIvkfI-12">
          <mxGeometry width="50" height="50" relative="1" as="geometry">
            <mxPoint x="100" y="340" as="sourcePoint" />
            <mxPoint x="208" y="305" as="targetPoint" />
          </mxGeometry>
        </mxCell>
        <mxCell id="YmTk-5XPmhIBzpGIvkfI-32" value="" style="endArrow=none;html=1;rounded=0;entryX=0.022;entryY=0.557;entryDx=0;entryDy=0;entryPerimeter=0;" edge="1" parent="1" source="YmTk-5XPmhIBzpGIvkfI-1" target="YmTk-5XPmhIBzpGIvkfI-10">
          <mxGeometry width="50" height="50" relative="1" as="geometry">
            <mxPoint x="180" y="360" as="sourcePoint" />
            <mxPoint x="230" y="310" as="targetPoint" />
          </mxGeometry>
        </mxCell>
        <mxCell id="YmTk-5XPmhIBzpGIvkfI-34" value="AI color analysis and recommendation system" style="text;strokeColor=none;align=center;fillColor=none;html=1;verticalAlign=middle;whiteSpace=wrap;rounded=0;fontStyle=1;fontColor=#3333FF;" vertex="1" parent="1">
          <mxGeometry x="195" y="120" width="125" height="30" as="geometry" />
        </mxCell>
      </root>
    </mxGraphModel>
  </diagram>
</mxfile>
